<?xml version="1.0" encoding="UTF-8" standalone="no"?>
<svg
   xml:space="preserve"
   height="40"
   viewBox="0 0 154.99998 39.99944"
   width="155"
   version="1.1"
   id="svg10"
   sodipodi:docname="logo.svg"
   inkscape:version="1.1.2 (0a00cf5339, 2022-02-04, custom)"
   xmlns:inkscape="http://www.inkscape.org/namespaces/inkscape"
   xmlns:sodipodi="http://sodipodi.sourceforge.net/DTD/sodipodi-0.dtd"
   xmlns="http://www.w3.org/2000/svg"
   xmlns:svg="http://www.w3.org/2000/svg"><defs
     id="defs14"><inkscape:path-effect
       effect="bspline"
       id="path-effect3901"
       is_visible="true"
       lpeversion="1"
       weight="33.333333"
       steps="2"
       helper_size="0"
       apply_no_weight="true"
       apply_with_weight="true"
       only_selected="false" /></defs><sodipodi:namedview
     id="namedview12"
     pagecolor="#5c5c5c"
     bordercolor="#666666"
     borderopacity="1.0"
     inkscape:pageshadow="2"
     inkscape:pageopacity="0"
     inkscape:pagecheckerboard="true"
     showgrid="false"
     inkscape:zoom="2.2301061"
     inkscape:cx="77.574786"
     inkscape:cy="28.922391"
     inkscape:window-width="1346"
     inkscape:window-height="674"
     inkscape:window-x="10"
     inkscape:window-y="48"
     inkscape:window-maximized="1"
     inkscape:current-layer="g950"
     fit-margin-top="0"
     fit-margin-left="0"
     fit-margin-right="0"
     fit-margin-bottom="0" /><g
     transform="matrix(1.25,0,0,-1.25,-155.36081,462.79525)"
     id="g8"><g
       id="g6"><g
         id="g1569"><g
           id="g950"
           transform="translate(-1.7086084,26.187826)"
           style="stroke-width:0.96;stroke-miterlimit:4;stroke-dasharray:none"><g
             id="g40"
             transform="matrix(0.04391756,0,0,-0.04773765,127.75186,341.69137)"
             style="fill:#ffffff"><path
               id="path22"
               d="M 361.453,485.937 C 162.329,485.937 0.906,377.828 0.906,244.469 0.906,111.109 162.329,3 361.453,3 560.578,3 722,111.109 722,244.469 722,377.828 560.578,485.937 361.453,485.937 Z M 416.641,97.406 c -151.352,0 -274.047,73.908 -274.047,165.078 0,91.17 122.695,165.078 274.047,165.078 151.351,0 263.046,-50.529 263.046,-165.078 0,-114.513 -111.695,-165.078 -263.046,-165.078 z"
               inkscape:connector-curvature="0"
               style="fill:#ffffff;fill-rule:evenodd" /><path
               id="path24"
               d="m 550,377 c 0,0 21.822,6.585 34.5,13 4.399,2.226 12.01,6.668 17.5,12.5 5.378,5.712 8,11.5 8,11.5 L 696,559 557,559.062 492,437 c 0,0 -13.31,-22.869 -21.5,-29.5 -6.832,-5.531 -9.745,-7.5 -16.5,-7.5 -4.702,0 -33.026,0 -33.026,0 L 421,558.974 298,559.026 V 152.938 h 247 c 0,0 112.5,2.029 112.5,109.062 0,107.033 -107.5,115 -107.5,115 z m -53.5,-135.976 -74.463,-0.048 -0.037,69.05 74.5,-0.024 c 0,0 34.5,-0.107 34.5,-35.125 0,-35.722 -34.5,-33.853 -34.5,-33.853 z"
               inkscape:connector-curvature="0"
               style="fill:#ffffff;fill-rule:evenodd" /></g><g
             id="g71"
             transform="matrix(0.43747915,0,0,-0.41301694,165.65306,432.59659)"
             style="fill:#ffffff"><path
               style="fill:#ffffff;stroke-width:0.0656951"
               d="m 31.435554,278.46088 -7.676173,-7.76136 0.0018,-4.67176 c 0.0014,-3.54324 0.02069,-4.69096 0.08,-4.75123 0.09647,-0.098 8.617816,-0.11583 8.869683,-0.0185 0.08675,0.0335 3.740305,3.65699 8.11901,8.05218 l 7.961283,7.99126 -0.01675,4.44669 -0.01675,4.44669 -4.822964,0.0137 -4.822964,0.0137 z m -15.46102,6.63686 C 10.407462,284.88975 4.978278,283.34442 0.38824096,280.66135 -7.4967499,276.05226 -12.725502,268.28756 -14.101376,259.14427 c -0.254566,-1.69171 -0.295747,-2.37168 -0.294759,-4.86711 10e-4,-2.62517 0.05084,-3.29498 0.398813,-5.36376 1.562461,-9.28922 7.3316386,-17.08631 15.844391,-21.41382 3.904722,-1.98499 8.167506,-3.14887 12.889136,-3.51915 1.172924,-0.092 4.297551,-0.0919 5.474716,1.9e-4 4.760987,0.37236 8.977317,1.52809 12.95979,3.55238 7.102301,3.61009 12.341758,9.67882 14.773524,17.11181 0.644377,1.96962 1.065237,3.91474 1.346243,6.22206 0.169511,1.39182 0.170007,5.57531 8.28e-4,6.95302 -0.433414,3.52947 -1.225068,6.43721 -2.567451,9.43024 -0.466219,1.0395 -1.064993,2.15812 -1.155196,2.15812 -0.03903,0 -2.222954,-2.18721 -4.853157,-4.86047 -4.566995,-4.64175 -4.78006,-4.86895 -4.734919,-5.04921 0.470598,-1.87917 0.694687,-4.45411 0.561016,-6.44647 -0.282021,-4.2035 -1.563772,-7.79054 -3.939727,-11.0255 -0.750851,-1.02231 -2.54512,-2.84892 -3.559712,-3.62388 -3.072685,-2.34695 -6.461009,-3.59672 -10.361134,-3.82168 -5.450936,-0.31441 -10.793214,1.75861 -14.665602,5.69084 -3.03306404,3.07994 -4.90619404,6.98096 -5.516578,11.48895 -0.162586,1.20078 -0.164196,4.02679 -0.003,5.19821 0.34172,2.4827 0.88025096,4.28163 1.93278296,6.45637 2.48288404,5.13012 7.08682704,8.95477 12.47274604,10.36153 1.746948,0.45629 2.92229,0.60576 4.767676,0.60631 1.289459,4e-4 2.38445,-0.0965 3.464713,-0.30651 0.281036,-0.0546 0.584381,-0.0994 0.6741,-0.0994 0.128932,-1e-5 1.0477,0.89881 4.383031,4.28787 2.320945,2.35834 4.219903,4.32205 4.219903,4.36381 0,0.17396 -2.94708,1.14661 -4.757789,1.57026 -2.045722,0.47862 -4.417563,0.80676 -6.289406,0.87012 -0.573542,0.0194 -1.277434,0.0447 -1.564205,0.0561 -0.28677,0.0115 -1.107978,-10e-4 -1.824905,-0.0279 z m 0.04868,-22.32817 -3.861425,-3.9237 v -4.48614 -4.48615 h 4.601572 4.601572 l 3.68228,3.69172 3.682281,3.69172 -4.357047,0.0331 -4.357047,0.0331 -0.01673,4.68501 c -0.0092,2.57676 -0.03862,4.68501 -0.06538,4.68501 -0.02676,0 -1.78629,-1.76566 -3.910074,-3.92369 z"
               id="path83"
               inkscape:connector-curvature="0" /></g><text
             xml:space="preserve"
             style="font-style:normal;font-weight:normal;font-size:32px;line-height:1.25;font-family:sans-serif;fill:#000000;fill-opacity:1;stroke:none;stroke-width:0.768"
             x="194.40437"
             y="-332.73822"
             id="text2922"
             transform="scale(1,-1)"><tspan
               sodipodi:role="line"
               id="tspan2920"
               style="stroke-width:0.768"
               x="194.40437"
               y="-332.73822" /></text><text
             xml:space="preserve"
             style="font-style:normal;font-weight:normal;font-size:35.351px;line-height:1.25;font-family:sans-serif;fill:#ffffff;fill-opacity:1;stroke:#ffffff;stroke-width:0.569876;stroke-miterlimit:4;stroke-dasharray:none;stroke-opacity:1"
             x="171.32147"
             y="-342.54749"
             id="text15645"
             transform="scale(1.0847424,-0.92187785)"><tspan
               sodipodi:role="line"
               id="tspan15643"
               style="font-style:normal;font-variant:normal;font-weight:bold;font-stretch:normal;font-family:Ubuntu;-inkscape-font-specification:'Ubuntu Bold';fill:#ffffff;fill-opacity:1;stroke:#ffffff;stroke-width:0.569876;stroke-miterlimit:4;stroke-dasharray:none;stroke-opacity:1"
               x="171.32147"
               y="-342.54749">GIS</tspan></text></g></g></g></g></svg>
